<?xml version="1.0" encoding="UTF-8"?> <svg xmlns="http://www.w3.org/2000/svg" id="Capa_1" viewBox="0 0 395.61 89.11"><path d="m56.12,67.84c-7.36-.43-14.57-3.81-22.01-6.3-4.05-1.35-8.03-2.93-12.05-4.22-7.33-2.33-12.34-.45-16.44,6.03-1,1.59-1.92,3.62-4.22,2.66-2.3-.95-1.21-3.21-.66-4.88.74-2.43,1.64-4.8,2.7-7.1,6.56-13.56,16.88-17.79,31.75-13.26,7.41,2.28,14.46,5.34,21.7,8.22,9.5,3.81,12.56,2.72,17.65-6.03.77-1.33,1.34-3.24,3.46-2.51,2.12.74,1.93,2.7,1.45,4.45-1.35,5.31-3.67,10.32-6.85,14.78-3.81,5.26-9.97,8.31-16.47,8.16"></path><path d="m23.08,16.6C23,7.51,30.31.07,39.41,0h.54c9.18-.08,16.69,7.3,16.77,16.48v.3c-.09,9.29-7.67,16.75-16.96,16.71-9.15.06-16.61-7.3-16.67-16.45v-.44"></path><path d="m102.76,85.42c1.42.65,2.97.99,4.53,1.01,2.01,0,2.48-.65,2.48-1.39s-.41-1.21-2.48-1.54c-2.07-.34-4.82-.68-4.82-4.04,0-2.8,2.18-4.22,5.73-4.22,1.53-.02,3.04.28,4.45.88l-.53,2.48c-1.25-.54-2.59-.81-3.95-.8-1.82,0-2.35.59-2.35,1.35s.19,1.21,2.11,1.4,5.27.52,5.27,4.09c0,2.74-2,4.34-5.81,4.34-1.74.05-3.48-.32-5.05-1.07l.43-2.5h-.01Z"></path><polygon points="114.7 88.77 114.7 75.51 124.7 75.51 124.7 77.92 118.01 77.92 118.01 80.63 124.25 80.63 124.25 83.04 118.01 83.04 118.01 86.21 124.98 86.21 124.98 88.62 114.7 88.77"></polygon><polygon points="127.12 88.77 127.12 75.51 130.43 75.51 130.43 81.38 135.01 75.51 138.98 75.51 133.6 81.75 139.41 88.81 135.22 88.81 130.4 82.42 130.4 88.81 127.12 88.77"></polygon><polygon points="144.44 88.77 144.44 75.51 153.37 75.51 153.37 76.84 146.14 76.84 146.14 81.25 152.89 81.25 152.89 82.57 146.14 82.57 146.14 87.47 153.65 87.47 153.65 88.81 144.44 88.77"></polygon><path d="m156.22,88.77v-13.26h4.63c3.83,0,6.36,1.92,6.36,6.27v.76c0,4.29-2.53,6.27-6.36,6.27,0,0-4.63-.04-4.63-.04Zm1.71-11.95v10.6h2.88c2.74,0,4.63-1.31,4.63-4.94v-.72c0-3.62-1.89-4.93-4.63-4.93h-2.88Z"></path><path d="m169.58,75.47h1.7v8.34c0,2.88,1.21,3.94,3.62,3.94s3.62-1.06,3.62-3.94v-8.34h1.69v8.35c0,3.62-1.88,5.28-5.35,5.28s-5.22-1.58-5.22-5.28l-.05-8.35h0Z"></path><path d="m182.5,82.69v-.72c0-4.39,2.41-6.67,6.03-6.67,1.28-.02,2.54.25,3.7.78l-.27,1.31c-1.02-.52-2.16-.77-3.3-.75-2.56,0-4.44,1.58-4.44,5.34v.74c0,3.54,1.82,4.98,4.42,4.98,1.23,0,2.44-.27,3.54-.82l.27,1.31c-1.26.59-2.64.88-4.03.84-3.63-.06-5.93-2.15-5.93-6.35"></path><path d="m193.76,88.77l5.28-13.26h1.75l5.28,13.26h-1.78l-1.45-3.85h-5.88l-1.45,3.85h-1.75Zm3.69-5.15h4.93l-2.41-6.5-2.52,6.5h0Z"></path><polygon points="209.9 88.77 209.9 76.82 205.24 76.82 205.24 75.47 216.21 75.47 216.21 76.82 211.55 76.82 211.55 88.77 209.9 88.77"></polygon><rect x="218.38" y="75.51" width="1.7" height="13.26"></rect><path d="m222.52,82.54v-.83c0-4.69,2.41-6.57,5.89-6.57s5.85,1.99,5.85,6.57v.83c0,4.69-2.41,6.57-5.89,6.57s-5.85-1.99-5.85-6.57m9.99,0v-.83c0-4.03-1.74-5.22-4.1-5.22s-4.12,1.21-4.12,5.22v.83c0,4.03,1.72,5.22,4.1,5.22s4.12-1.19,4.12-5.22"></path><polygon points="236.73 88.77 236.73 75.51 238.23 75.51 245.86 86.36 245.86 75.51 247.44 75.51 247.44 88.77 245.95 88.77 238.32 77.92 238.32 88.77 236.73 88.77"></polygon><path d="m259.13,81.87h4.98v6.28c-1.45.57-3,.85-4.56.83-4.05,0-6.26-2.12-6.26-6.29v-.72c0-4.36,2.41-6.67,6.39-6.67,1.42-.04,2.83.26,4.11.89l-.27,1.31c-1.16-.59-2.44-.88-3.74-.87-2.88,0-4.75,1.63-4.75,5.35v.74c0,3.47,1.7,4.99,4.58,4.99.96.01,1.92-.12,2.84-.4v-4.15h-3.34v-1.3h.02Z"></path><path d="m266.72,88.77v-13.26h4.73c2.87,0,4.76,1.21,4.76,3.97.07,1.64-.97,3.13-2.54,3.62l3.06,5.67h-1.88l-2.75-5.34c-.22.01-.43.01-.65,0h-3.1v5.32l-1.63.04v-.02Zm1.63-11.98v5.39h3.04c1.83,0,3.13-.57,3.13-2.7s-1.3-2.69-3.13-2.69h-3.04Z"></path><path d="m278.25,82.54v-.83c0-4.69,2.41-6.57,5.88-6.57s5.85,1.99,5.85,6.57v.83c0,4.69-2.35,6.57-5.88,6.57s-5.85-1.99-5.85-6.57m9.98,0v-.83c0-4.03-1.72-5.22-4.1-5.22s-4.12,1.21-4.12,5.22v.83c0,4.03,1.74,5.22,4.11,5.22s4.11-1.19,4.11-5.22"></path><path d="m292.35,75.47h1.71v8.34c0,2.88,1.21,3.94,3.62,3.94s3.62-1.06,3.62-3.94v-8.34h1.69v8.35c0,3.62-1.88,5.28-5.35,5.28s-5.22-1.58-5.22-5.28l-.06-8.35h0Z"></path><path d="m305.91,88.77v-13.26h4.47c2.87,0,4.82,1.21,4.82,4.1s-1.99,4.1-4.82,4.1h-2.84v5.1s-1.63-.04-1.63-.04Zm1.63-11.98v5.58h2.81c1.82,0,3.13-.61,3.13-2.8s-1.31-2.78-3.13-2.78h-2.81Z"></path><path d="m102.82,1.01h4.69v17.92c0,5.76,2.41,8.08,7.23,8.08s7.23-2.31,7.23-8.08V1.01h4.65v17.96c0,8.12-4.29,11.62-12.05,11.62s-11.78-3.5-11.78-11.62l.02-17.96h.01Z"></path><path d="m131.9,29.85V8.54h3.92l.27,3.3c1.21-2.68,3.38-3.88,6.63-3.88,4.82,0,7.38,2.69,7.38,8.82v13.07h-4.53v-12.86c0-4.12-1.31-5.4-4.07-5.4-3.05,0-5.07,1.65-5.07,6.27v12.05l-4.51-.06h-.02Z"></path><rect x="155.02" y="1.01" width="4.65" height="4.86"></rect><rect x="155.11" y="8.54" width="4.53" height="21.3"></rect><polygon points="182.76 8.54 175.06 29.85 170.23 29.85 162.6 8.54 167.43 8.54 172.78 25.42 178.14 8.54 182.76 8.54"></polygon><path d="m202.62,20.5h-14.09c.2,4.62,2.41,6.39,6.3,6.39,2.32-.07,4.6-.6,6.71-1.57l.7,3.25c-2.55,1.09-5.3,1.65-8.08,1.64-6.63,0-10.17-3.46-10.17-10.55v-1.31c0-7,3.91-10.39,9.72-10.39s8.91,3.34,8.91,10.13v2.41h0Zm-14.09-3h9.64c-.12-4.7-1.6-6.27-4.7-6.27s-4.74,1.6-4.94,6.22v.05Z"></path><path d="m218.86,12.63c-.73-.31-1.52-.47-2.31-.46-2.88,0-5.23,1.69-5.23,6.71v10.97h-4.53V8.54h3.92l.33,3.68c1.36-3.28,5.13-4.84,8.41-3.48.04.02.08.03.12.05l-.7,3.83h-.01Z"></path><path d="m221.45,25.23c2.17,1.01,4.53,1.56,6.92,1.6,3.51,0,4.62-1.21,4.62-2.93s-1.11-2.51-4.24-3.05-7.62-1.11-7.62-6.3c0-4.69,3.78-6.42,8.65-6.42,2.32-.05,4.61.43,6.71,1.4l-.66,3.3c-1.86-.87-3.88-1.32-5.93-1.33-3.01,0-4.45.92-4.45,2.69s.99,2.41,4.16,2.92,7.7,1.21,7.7,6.39c0,4.41-3.21,6.71-8.81,6.71-2.66,0-5.29-.56-7.71-1.64,0,0,.66-3.34.66-3.34Z"></path><rect x="240.86" y="1.01" width="4.65" height="4.86"></rect><rect x="240.94" y="8.54" width="4.53" height="21.3"></rect><path d="m249.56,19.92v-1.36c0-7.05,3.54-10.6,8.81-10.6,3.22,0,5.23,1.33,6.3,3.3V1h4.5v28.84h-3.95l-.25-3.33c-1.21,2.41-3.25,3.95-6.83,3.95-5.23-.06-8.57-3.52-8.57-10.56m15.12-.12v-1.28c0-5.24-2.1-7.09-5.27-7.09s-5.2,1.83-5.2,7.09v1.28c0,5.15,2.11,7,5.28,7s5.18-1.86,5.18-7"></path><path d="m291.13,29.85h-4.04l-.2-2.64c-1.04,1.98-3.13,3.21-6.39,3.21-3.87,0-7.29-1.6-7.29-6.51,0-3.87,1.94-6.92,9.64-6.92,1.28,0,2.56.07,3.83.2v-1.02c0-3.18-1.6-4.62-4.82-4.62-2.33.05-4.61.64-6.68,1.71l-.61-3.3c2.43-1.18,5.09-1.78,7.79-1.77,6.03,0,8.78,2.84,8.78,8.12v13.54h0Zm-9.64-2.69c2.97,0,5.1-1.4,5.1-4.94v-2.1c-1.18-.12-2.36-.17-3.54-.17-4.24,0-5.35,1.4-5.35,3.71.05,2.64,1.49,3.5,3.85,3.5h-.06Z"></path><path d="m295.01,19.92v-1.36c0-7.05,3.54-10.6,8.81-10.6,3.22,0,5.23,1.33,6.3,3.3V1h4.5v28.84h-3.95l-.25-3.33c-1.21,2.41-3.25,3.95-6.83,3.95-5.24-.06-8.57-3.52-8.57-10.56m15.12-.12v-1.28c0-5.24-2.1-7.09-5.27-7.09s-5.24,1.84-5.24,7.09v1.28c0,5.15,2.11,7,5.28,7s5.23-1.86,5.23-7"></path><path d="m102.07,52.86v-1.65c0-9.4,5.41-14.46,13.9-14.46,2.87-.08,5.72.52,8.32,1.74l-.66,3.46c-2.25-1.1-4.73-1.65-7.23-1.62-5.63,0-9.33,3.47-9.33,10.97v1.52c0,6.92,3.62,10.17,9.28,10.17,2.7,0,5.37-.6,7.81-1.76l.67,3.46c-2.88,1.38-6.05,2.03-9.23,1.89-8.44,0-13.52-4.65-13.52-13.72"></path><path d="m145.5,65.89h-4.11l-.22-2.63c-1.05,1.98-3.19,3.21-6.51,3.21-3.94,0-7.44-1.6-7.44-6.51,0-3.87,1.98-6.92,9.79-6.92,1.3,0,2.61.07,3.91.2v-1.04c0-3.17-1.63-4.6-4.95-4.6-2.33.04-4.62.6-6.71,1.64l-.64-3.29c2.48-1.18,5.2-1.78,7.94-1.77,6.03,0,8.94,2.84,8.94,8.11v13.6Zm-9.79-2.68c3.03,0,5.21-1.4,5.21-4.94v-2.1c-1.2-.12-2.41-.18-3.62-.17-4.33,0-5.46,1.4-5.46,3.71,0,2.63,1.48,3.5,3.87,3.5"></path><path d="m150.02,65.89v-21.29h3.99l.29,3.22c1.13-2.64,3.36-3.8,6.56-3.8s5.36,1.27,6.38,4.19c1.1-2.92,3.62-4.16,7.02-4.16,4.75,0,7.23,2.68,7.23,8.82v13.01h-4.58v-12.85c0-4.12-1.34-5.4-3.86-5.4-3.03,0-4.95,1.65-4.95,6.27v11.98h-4.63v-12.85c0-4.12-1.34-5.4-3.86-5.4-3.03,0-4.92,1.65-4.92,6.27v11.98h-4.67Z"></path><rect x="186.1" y="37.14" width="4.65" height="4.86"></rect><rect x="186.1" y="44.59" width="4.62" height="21.3"></rect><rect x="196.44" y="37.14" width="4.62" height="28.75"></rect><path d="m204.79,55.92v-1.36c0-7.09,3.95-10.55,10.13-10.55s9.99,3.42,9.99,10.55v1.33c0,7.09-3.94,10.58-10.13,10.58s-9.99-3.46-9.99-10.55m15.42,0v-1.31c0-5.32-2.15-7.14-5.38-7.14s-5.34,1.82-5.34,7.14v1.21c0,5.36,2.15,7.14,5.38,7.14s5.34-1.8,5.34-7.06v.04-.02Z"></path><path d="m249.31,37.14v17.62c0,8.79-4.21,11.62-10.63,11.62-2.82.03-5.62-.6-8.15-1.84l.67-3.47c2.14,1.12,4.52,1.72,6.93,1.74,3.94,0,6.42-1.65,6.42-8.08v-17.59h4.76Z"></path><path d="m253.92,55.92v-1.36c0-7.09,3.95-10.55,10.13-10.55s9.99,3.42,9.99,10.55v1.33c0,7.09-3.94,10.58-10.13,10.58s-9.99-3.46-9.99-10.55m15.42,0v-1.31c0-5.32-2.15-7.14-5.38-7.14s-5.34,1.82-5.34,7.14v1.21c0,5.36,2.15,7.14,5.38,7.14s5.34-1.8,5.34-7.06v.04-.02Z"></path><path d="m276.9,61.27c2.22,1.02,4.62,1.57,7.06,1.62,3.62,0,4.7-1.21,4.7-2.93s-1.13-2.51-4.33-3.05c-3.19-.54-7.77-1.11-7.77-6.3,0-4.7,3.87-6.42,8.82-6.42,2.36-.06,4.7.42,6.85,1.4l-.65,3.3c-1.89-.88-3.95-1.33-6.03-1.33-3.07,0-4.54.9-4.54,2.68s1.01,2.41,4.24,2.93,7.86,1.21,7.86,6.39c0,4.41-3.28,6.71-8.99,6.71-2.7,0-5.38-.56-7.85-1.65l.63-3.34h0Z"></path><path d="m314.62,56.5h-14.37c.2,4.62,2.48,6.39,6.42,6.39,2.36-.05,4.69-.57,6.85-1.53l.71,3.25c-2.59,1.11-5.38,1.69-8.2,1.69-6.76,0-10.37-3.46-10.37-10.55v-1.35c0-7.02,3.99-10.39,9.91-10.39s9.08,3.34,9.08,10.05l-.04,2.43h.01Zm-14.37-3.01h9.87c-.13-4.69-1.64-6.26-4.82-6.26s-4.85,1.65-5.05,6.26m1.76-12.27l4.33-5.44h5.51l-5.59,5.44h-4.25Z"></path><path d="m322.42,52.67v-1.65c0-9.39,5.32-14.46,13.63-14.46,2.82-.07,5.62.52,8.16,1.74l-.66,3.46c-2.21-1.1-4.65-1.65-7.12-1.6-5.52,0-9.15,3.46-9.15,10.96v1.53c0,6.92,3.51,10.17,9.1,10.17,2.66,0,5.28-.61,7.67-1.77l.66,3.46c-2.79,1.37-5.88,2.02-8.98,1.89-8.28,0-13.31-4.65-13.31-13.72"></path><path d="m365.8,56.5h-14.09c.2,4.62,2.41,6.39,6.3,6.39,2.32-.05,4.6-.57,6.71-1.53l.71,3.25c-2.55,1.11-5.3,1.69-8.09,1.69-6.63,0-10.17-3.46-10.17-10.55v-1.35c0-7.02,3.92-10.39,9.73-10.39s8.9,3.34,8.9,10.05v2.43h0Zm-14.09-3.01h9.64c-.12-4.69-1.6-6.26-4.69-6.26s-4.75,1.65-4.95,6.26Z"></path><rect x="369.55" y="37.14" width="4.54" height="28.75"></rect><path d="m395.6,65.89h-3.98l-.2-2.63c-1.04,1.98-3.13,3.21-6.39,3.21-3.87,0-7.29-1.6-7.29-6.51,0-3.87,1.94-6.92,9.64-6.92,1.28,0,2.56.07,3.83.2v-1.04c0-3.17-1.6-4.6-4.82-4.6-2.29.04-4.55.61-6.59,1.64l-.61-3.29c2.38-1.15,4.98-1.76,7.62-1.77,6.03,0,8.78,2.84,8.78,8.11l.02,13.6h0Zm-9.64-2.68c2.97,0,5.1-1.4,5.1-4.94v-2.1c-1.18-.12-2.36-.18-3.54-.17-4.24,0-5.35,1.4-5.35,3.71.05,2.63,1.49,3.5,3.85,3.5h-.06Z"></path></svg> 